<svg xmlns="http://www.w3.org/2000/svg" xmlns:xlink="http://www.w3.org/1999/xlink" width="500" zoomAndPan="magnify" viewBox="0 0 375 149.999998" height="200" preserveAspectRatio="xMidYMid meet" version="1.0"><defs><g/><clipPath id="43f9c566c9"><path d="M 75 3.371094 L 375 3.371094 L 375 118.871094 L 75 118.871094 Z M 75 3.371094 " clip-rule="nonzero"/></clipPath><clipPath id="1bb607b18b"><path d="M 0 3.371094 L 137 3.371094 L 137 118.871094 L 0 118.871094 Z M 0 3.371094 " clip-rule="nonzero"/></clipPath></defs><path fill="#918f8f" d="M 37.902344 115.65625 L 99.152344 43.859375 L 109.363281 56.082031 L 99.324219 50.140625 L 37.902344 115.65625 " fill-opacity="1" fill-rule="nonzero"/><path fill="#918f8f" d="M 117.8125 109.519531 L 173.828125 43.859375 L 190.449219 64.175781 L 174 50.140625 L 117.8125 109.519531 " fill-opacity="1" fill-rule="nonzero"/><g clip-path="url(#43f9c566c9)"><path fill="#4e37db" d="M 220.023438 57.1875 L 173.960938 3.375 L 75.082031 118.886719 L 133.386719 118.886719 L 105.660156 113.039062 L 173.960938 33.25 L 201.347656 65.246094 L 374.789062 65.246094 L 220.023438 57.1875 " fill-opacity="1" fill-rule="nonzero"/></g><g clip-path="url(#1bb607b18b)"><path fill="#00005c" d="M 99.09375 3.378906 L 75.082031 31.425781 L 75.082031 21.964844 L 61.359375 21.964844 L 52.511719 36.308594 L 61.359375 31.417969 L 61.359375 47.457031 L 0.214844 118.886719 L 25.785156 118.886719 L 99.09375 33.25 L 118.789062 56.261719 L 136.53125 47.101562 L 99.09375 3.378906 " fill-opacity="1" fill-rule="nonzero"/></g><g fill="#4e37db" fill-opacity="1"><g transform="translate(145.253283, 114.327112)"><g><path d="M 23.015625 0 L 17.53125 -9.109375 C 17.238281 -9.078125 16.78125 -9.0625 16.15625 -9.0625 L 9.015625 -9.0625 L 9.015625 0 L 3.953125 0 L 3.953125 -30.0625 L 16.15625 -30.0625 C 19.988281 -30.0625 22.960938 -29.164062 25.078125 -27.375 C 27.203125 -25.59375 28.265625 -23.066406 28.265625 -19.796875 C 28.265625 -17.390625 27.726562 -15.351562 26.65625 -13.6875 C 25.582031 -12.03125 24.039062 -10.816406 22.03125 -10.046875 L 28.78125 0 Z M 9.015625 -13.609375 L 16.15625 -13.609375 C 21.019531 -13.609375 23.453125 -15.628906 23.453125 -19.671875 C 23.453125 -23.566406 21.019531 -25.515625 16.15625 -25.515625 L 9.015625 -25.515625 Z M 9.015625 -13.609375 "/></g></g></g><g fill="#4e37db" fill-opacity="1"><g transform="translate(176.292807, 114.327112)"><g><path d="M 25.421875 -25.515625 L 9.015625 -25.515625 L 9.015625 -17.390625 L 23.703125 -17.390625 L 23.703125 -12.84375 L 9.015625 -12.84375 L 9.015625 -4.546875 L 25.9375 -4.546875 L 25.9375 0 L 3.953125 0 L 3.953125 -30.0625 L 25.421875 -30.0625 Z M 25.421875 -25.515625 "/></g></g></g><g fill="#4e37db" fill-opacity="1"><g transform="translate(204.455918, 114.327112)"><g><path d="M 30.03125 0 L 25.046875 0 L 9.015625 -21.5625 L 9.015625 0 L 3.953125 0 L 3.953125 -30.0625 L 8.9375 -30.0625 L 25.046875 -8.46875 L 25.046875 -30.0625 L 30.03125 -30.0625 Z M 30.03125 0 "/></g></g></g><g fill="#4e37db" fill-opacity="1"><g transform="translate(238.457731, 114.327112)"><g><path d="M 24.484375 -25.515625 L 14.953125 -25.515625 L 14.953125 0 L 9.875 0 L 9.875 -25.515625 L 0.390625 -25.515625 L 0.390625 -30.0625 L 24.484375 -30.0625 Z M 24.484375 -25.515625 "/></g></g></g><g fill="#4e37db" fill-opacity="1"><g transform="translate(263.315111, 114.327112)"><g><path d="M 23.359375 -6.78125 L 8.203125 -6.78125 L 5.328125 0 L 0.046875 0 L 13.3125 -30.0625 L 18.515625 -30.0625 L 31.65625 0 L 26.25 0 Z M 21.4375 -11.296875 L 15.765625 -24.65625 L 10.09375 -11.296875 Z M 21.4375 -11.296875 "/></g></g></g><g fill="#4e37db" fill-opacity="1"><g transform="translate(294.998623, 114.327112)"><g><path d="M 9.015625 -4.59375 L 22.03125 -4.59375 L 22.03125 0 L 3.953125 0 L 3.953125 -30.0625 L 9.015625 -30.0625 Z M 9.015625 -4.59375 "/></g></g></g><g fill="#4e37db" fill-opacity="1"><g transform="translate(317.924092, 114.327112)"><g><path d="M 13.828125 -30.28125 C 17.722656 -30.28125 21.234375 -29.25 24.359375 -27.1875 L 22.25 -22.71875 C 19.1875 -24.582031 16.25 -25.515625 13.4375 -25.515625 C 11.925781 -25.515625 10.734375 -25.238281 9.859375 -24.6875 C 8.984375 -24.144531 8.546875 -23.375 8.546875 -22.375 C 8.546875 -21.375 8.945312 -20.519531 9.75 -19.8125 C 10.550781 -19.113281 11.550781 -18.597656 12.75 -18.265625 C 13.957031 -17.941406 15.257812 -17.53125 16.65625 -17.03125 C 18.0625 -16.53125 19.363281 -16 20.5625 -15.4375 C 21.769531 -14.882812 22.765625 -14.007812 23.546875 -12.8125 C 24.335938 -11.625 24.734375 -10.1875 24.734375 -8.5 C 24.734375 -5.863281 23.679688 -3.757812 21.578125 -2.1875 C 19.472656 -0.613281 16.75 0.171875 13.40625 0.171875 C 11.113281 0.171875 8.890625 -0.253906 6.734375 -1.109375 C 4.585938 -1.972656 2.710938 -3.132812 1.109375 -4.59375 L 3.3125 -8.984375 C 4.820312 -7.578125 6.484375 -6.492188 8.296875 -5.734375 C 10.117188 -4.972656 11.847656 -4.59375 13.484375 -4.59375 C 15.265625 -4.59375 16.644531 -4.914062 17.625 -5.5625 C 18.613281 -6.207031 19.109375 -7.101562 19.109375 -8.25 C 19.109375 -9.28125 18.707031 -10.144531 17.90625 -10.84375 C 17.101562 -11.539062 16.097656 -12.054688 14.890625 -12.390625 C 13.691406 -12.722656 12.390625 -13.125 10.984375 -13.59375 C 9.585938 -14.0625 8.285156 -14.5625 7.078125 -15.09375 C 5.878906 -15.625 4.878906 -16.476562 4.078125 -17.65625 C 3.273438 -18.832031 2.875 -20.25 2.875 -21.90625 C 2.875 -24.457031 3.875 -26.488281 5.875 -28 C 7.882812 -29.519531 10.535156 -30.28125 13.828125 -30.28125 Z M 13.828125 -30.28125 "/></g></g></g><g fill="#00005c" fill-opacity="1"><g transform="translate(168.5097, 140.044582)"><g><path d="M 12.703125 0 L 9.34375 -4.765625 C 8.9375 -4.734375 8.613281 -4.71875 8.375 -4.71875 L 4.546875 -4.71875 L 4.546875 0 L 2.328125 0 L 2.328125 -15.515625 L 8.375 -15.515625 C 10.382812 -15.515625 11.960938 -15.03125 13.109375 -14.0625 C 14.265625 -13.101562 14.84375 -11.785156 14.84375 -10.109375 C 14.84375 -8.910156 14.546875 -7.890625 13.953125 -7.046875 C 13.367188 -6.203125 12.53125 -5.585938 11.4375 -5.203125 L 15.109375 0 Z M 8.3125 -6.609375 C 9.707031 -6.609375 10.773438 -6.910156 11.515625 -7.515625 C 12.253906 -8.117188 12.625 -8.984375 12.625 -10.109375 C 12.625 -11.222656 12.253906 -12.078125 11.515625 -12.671875 C 10.773438 -13.273438 9.707031 -13.578125 8.3125 -13.578125 L 4.546875 -13.578125 L 4.546875 -6.609375 Z M 8.3125 -6.609375 "/></g></g></g><g fill="#00005c" fill-opacity="1"><g transform="translate(188.056483, 140.044582)"><g><path d="M 13.578125 -1.921875 L 13.578125 0 L 2.328125 0 L 2.328125 -15.515625 L 13.265625 -15.515625 L 13.265625 -13.578125 L 4.546875 -13.578125 L 4.546875 -8.8125 L 12.3125 -8.8125 L 12.3125 -6.9375 L 4.546875 -6.9375 L 4.546875 -1.921875 Z M 13.578125 -1.921875 "/></g></g></g><g fill="#00005c" fill-opacity="1"><g transform="translate(206.341646, 140.044582)"><g><path d="M 12.203125 -3.875 L 3.96875 -3.875 L 2.265625 0 L -0.015625 0 L 7 -15.515625 L 9.1875 -15.515625 L 16.234375 0 L 13.921875 0 Z M 11.4375 -5.65625 L 8.09375 -13.25 L 4.734375 -5.65625 Z M 11.4375 -5.65625 "/></g></g></g><g fill="#00005c" fill-opacity="1"><g transform="translate(225.999095, 140.044582)"><g><path d="M 2.328125 -15.515625 L 4.546875 -15.515625 L 4.546875 -1.921875 L 12.9375 -1.921875 L 12.9375 0 L 2.328125 0 Z M 2.328125 -15.515625 "/></g></g></g><g fill="#00005c" fill-opacity="1"><g transform="translate(242.602099, 140.044582)"><g/></g></g><g fill="#00005c" fill-opacity="1"><g transform="translate(252.011641, 140.044582)"><g><path d="M 13.578125 -1.921875 L 13.578125 0 L 2.328125 0 L 2.328125 -15.515625 L 13.265625 -15.515625 L 13.265625 -13.578125 L 4.546875 -13.578125 L 4.546875 -8.8125 L 12.3125 -8.8125 L 12.3125 -6.9375 L 4.546875 -6.9375 L 4.546875 -1.921875 Z M 13.578125 -1.921875 "/></g></g></g><g fill="#00005c" fill-opacity="1"><g transform="translate(270.296804, 140.044582)"><g><path d="M 6.84375 0.171875 C 5.675781 0.171875 4.550781 -0.00390625 3.46875 -0.359375 C 2.382812 -0.722656 1.53125 -1.191406 0.90625 -1.765625 L 1.734375 -3.5 C 2.316406 -2.96875 3.070312 -2.535156 4 -2.203125 C 4.925781 -1.867188 5.875 -1.703125 6.84375 -1.703125 C 8.132812 -1.703125 9.09375 -1.921875 9.71875 -2.359375 C 10.351562 -2.796875 10.671875 -3.375 10.671875 -4.09375 C 10.671875 -4.625 10.5 -5.054688 10.15625 -5.390625 C 9.8125 -5.722656 9.382812 -5.976562 8.875 -6.15625 C 8.363281 -6.332031 7.644531 -6.53125 6.71875 -6.75 C 5.550781 -7.03125 4.609375 -7.3125 3.890625 -7.59375 C 3.171875 -7.875 2.554688 -8.304688 2.046875 -8.890625 C 1.535156 -9.472656 1.28125 -10.257812 1.28125 -11.25 C 1.28125 -12.082031 1.5 -12.828125 1.9375 -13.484375 C 2.375 -14.148438 3.035156 -14.679688 3.921875 -15.078125 C 4.804688 -15.484375 5.90625 -15.6875 7.21875 -15.6875 C 8.132812 -15.6875 9.035156 -15.566406 9.921875 -15.328125 C 10.804688 -15.097656 11.566406 -14.757812 12.203125 -14.3125 L 11.484375 -12.546875 C 10.828125 -12.953125 10.128906 -13.257812 9.390625 -13.46875 C 8.648438 -13.6875 7.925781 -13.796875 7.21875 -13.796875 C 5.96875 -13.796875 5.023438 -13.566406 4.390625 -13.109375 C 3.765625 -12.648438 3.453125 -12.0625 3.453125 -11.34375 C 3.453125 -10.8125 3.628906 -10.378906 3.984375 -10.046875 C 4.335938 -9.710938 4.773438 -9.453125 5.296875 -9.265625 C 5.828125 -9.085938 6.539062 -8.894531 7.4375 -8.6875 C 8.601562 -8.40625 9.539062 -8.125 10.25 -7.84375 C 10.96875 -7.5625 11.578125 -7.128906 12.078125 -6.546875 C 12.585938 -5.972656 12.84375 -5.203125 12.84375 -4.234375 C 12.84375 -3.421875 12.617188 -2.675781 12.171875 -2 C 11.734375 -1.332031 11.0625 -0.800781 10.15625 -0.40625 C 9.257812 -0.0195312 8.15625 0.171875 6.84375 0.171875 Z M 6.84375 0.171875 "/></g></g></g><g fill="#00005c" fill-opacity="1"><g transform="translate(287.497411, 140.044582)"><g><path d="M 5.40625 -13.578125 L 0.09375 -13.578125 L 0.09375 -15.515625 L 12.921875 -15.515625 L 12.921875 -13.578125 L 7.59375 -13.578125 L 7.59375 0 L 5.40625 0 Z M 5.40625 -13.578125 "/></g></g></g><g fill="#00005c" fill-opacity="1"><g transform="translate(303.945479, 140.044582)"><g><path d="M 12.203125 -3.875 L 3.96875 -3.875 L 2.265625 0 L -0.015625 0 L 7 -15.515625 L 9.1875 -15.515625 L 16.234375 0 L 13.921875 0 Z M 11.4375 -5.65625 L 8.09375 -13.25 L 4.734375 -5.65625 Z M 11.4375 -5.65625 "/></g></g></g><g fill="#00005c" fill-opacity="1"><g transform="translate(323.602928, 140.044582)"><g><path d="M 5.40625 -13.578125 L 0.09375 -13.578125 L 0.09375 -15.515625 L 12.921875 -15.515625 L 12.921875 -13.578125 L 7.59375 -13.578125 L 7.59375 0 L 5.40625 0 Z M 5.40625 -13.578125 "/></g></g></g><g fill="#00005c" fill-opacity="1"><g transform="translate(340.050995, 140.044582)"><g><path d="M 13.578125 -1.921875 L 13.578125 0 L 2.328125 0 L 2.328125 -15.515625 L 13.265625 -15.515625 L 13.265625 -13.578125 L 4.546875 -13.578125 L 4.546875 -8.8125 L 12.3125 -8.8125 L 12.3125 -6.9375 L 4.546875 -6.9375 L 4.546875 -1.921875 Z M 13.578125 -1.921875 "/></g></g></g></svg>